<?xml version="1.0" encoding="utf-8"?>
<!-- Generator: Adobe Illustrator 27.2.0, SVG Export Plug-In . SVG Version: 6.00 Build 0)  -->
<svg version="1.1" id="Ebene_1" xmlns="http://www.w3.org/2000/svg" xmlns:xlink="http://www.w3.org/1999/xlink" x="0px" y="0px"
	 width="320px" height="44px" viewBox="0 0 320 44" style="enable-background:new 0 0 320 44;" xml:space="preserve">
<style type="text/css">
	.st0{fill:#FFFFFF;}
</style>
<g>
	<path class="st0" d="M2,2h40v40H2V2z M0,0v2v40v2h2h40h2v-2V2V0H0z"/>
	<g>
		<path class="st0" d="M26.5,10.5C26.5,8,24.5,6,22,6s-4.5,2-4.5,4.5c0,2.5,2,4.5,4.5,4.5S26.5,13,26.5,10.5"/>
		<path class="st0" d="M27,21h2c1.1,0,2,0.9,2,2c0,1.1-0.9,2-2,2h-2V21z M29,29L29,29c3.3,0,6-2.7,6-6c0-3.3-2.7-6-6-6h-6v21h7v-4
			h-3v-5H29z"/>
	</g>
	<g>
		<path class="st0" d="M15,17c-3.3,0-6,2.7-6,6c0,3.3,2.7,6,6,6h2v5h-3v4h7V17H15z M20,37h-5v-2h3v-7h-3c-2.8,0-5-2.2-5-5
			c0-2.8,2.2-5,5-5h5V37z"/>
		<path class="st0" d="M12,23c0,1.7,1.3,3,3,3h3v-6h-3C13.3,20,12,21.3,12,23z M17,21v4h-2c-1.1,0-2-0.9-2-2c0-1.1,0.9-2,2-2H17z"/>
	</g>
	<g>
		<path class="st0" d="M72,24.6c1.3,0,2.4-0.4,3.1-1.1c0.8-0.7,1.2-1.7,1.2-2.9c0-1.2-0.4-2.2-1.2-2.9c-0.8-0.7-1.8-1.1-3.1-1.1
			h-4.5v8H72z M77.5,13c1.4,0.7,2.5,1.7,3.3,3c0.8,1.3,1.2,2.8,1.2,4.6c0,1.7-0.4,3.3-1.2,4.6c-0.8,1.3-1.9,2.3-3.3,3
			c-1.4,0.7-3.1,1.1-4.9,1.1h-5V38H62v-26h10.6C74.4,11.9,76,12.3,77.5,13"/>
		<path class="st0" d="M101.9,4.2c0.8,0,1.5,0.3,2,0.8c0.5,0.5,0.8,1.2,0.8,1.9s-0.3,1.4-0.8,1.9c-0.5,0.5-1.2,0.8-2,0.8
			s-1.5-0.3-2-0.8c-0.5-0.5-0.8-1.2-0.8-1.9S99.4,5.5,100,5C100.5,4.5,101.1,4.2,101.9,4.2 M94.1,4.2c0.8,0,1.5,0.3,2,0.8
			c0.5,0.5,0.8,1.2,0.8,1.9s-0.3,1.4-0.8,1.9c-0.5,0.5-1.2,0.8-2,0.8s-1.5-0.3-2-0.8c-0.5-0.5-0.8-1.2-0.8-1.9s0.3-1.4,0.8-1.9
			C92.7,4.5,93.3,4.2,94.1,4.2 M94.2,32.4c1.1,0.7,2.4,1.1,3.8,1.1c1.4,0,2.7-0.4,3.8-1.1c1.1-0.7,1.9-1.7,2.5-3
			c0.6-1.3,0.9-2.8,0.9-4.4s-0.3-3.1-0.9-4.4c-0.6-1.3-1.4-2.3-2.5-3c-1.1-0.7-2.3-1.1-3.8-1.1c-1.4,0-2.7,0.4-3.8,1.1
			c-1.1,0.7-1.9,1.7-2.5,3c-0.6,1.3-0.9,2.8-0.9,4.4s0.3,3.1,0.9,4.4C92.3,30.6,93.2,31.6,94.2,32.4 M104.7,36.5
			c-2,1.1-4.2,1.7-6.7,1.7c-2.5,0-4.7-0.6-6.7-1.7c-2-1.1-3.5-2.7-4.6-4.7c-1.1-2-1.6-4.3-1.6-6.8s0.5-4.8,1.6-6.8
			c1.1-2,2.6-3.6,4.6-4.7c2-1.1,4.2-1.7,6.7-1.7c2.5,0,4.7,0.6,6.7,1.7c2,1.1,3.5,2.7,4.6,4.7c1.1,2,1.6,4.3,1.6,6.8
			s-0.5,4.8-1.6,6.8S106.7,35.3,104.7,36.5"/>
		<path class="st0" d="M125.5,24.6c1.3,0,2.4-0.4,3.1-1.1s1.2-1.7,1.2-2.9c0-1.2-0.4-2.2-1.2-2.9s-1.8-1.1-3.1-1.1H121v8H125.5z
			 M130.9,13c1.4,0.7,2.5,1.7,3.3,3c0.8,1.3,1.2,2.8,1.2,4.6c0,1.7-0.4,3.3-1.2,4.6c-0.8,1.3-1.9,2.3-3.3,3
			c-1.4,0.7-3.1,1.1-4.9,1.1h-5V38h-5.6v-26H126C127.9,11.9,129.5,12.3,130.9,13"/>
		<path class="st0" d="M149.7,24.6c1.3,0,2.4-0.4,3.1-1.1s1.2-1.7,1.2-2.9c0-1.2-0.4-2.2-1.2-2.9s-1.8-1.1-3.1-1.1h-4.5v8H149.7z
			 M155.2,13c1.4,0.7,2.5,1.7,3.3,3c0.8,1.3,1.2,2.8,1.2,4.6c0,1.7-0.4,3.3-1.2,4.6c-0.8,1.3-1.9,2.3-3.3,3
			c-1.4,0.7-3.1,1.1-4.9,1.1h-5V38h-5.6v-26h10.6C152.1,11.9,153.8,12.3,155.2,13"/>
		<polygon class="st0" points="181.4,11.9 181.4,16.7 169.5,16.7 169.5,22.6 179.1,22.6 179.1,27.1 169.5,27.1 169.5,33.2 
			181.8,33.2 181.8,38 163.9,38 163.9,11.9 		"/>
		<polygon class="st0" points="187,11.9 192.6,11.9 192.6,33.2 202.9,33.2 202.9,38 187,38 		"/>
		<polygon class="st0" points="215.1,11.9 222.3,31 229.3,11.9 236.4,11.9 236.4,38 231.1,38 231.1,20.5 224.4,38 219.8,38 
			213.1,20.5 213.1,38 207.8,38 207.8,11.9 		"/>
		<path class="st0" d="M256.8,27.8l-3.5-9.9l-3.4,9.9H256.8z M250.2,11.9h6.7l9.4,26h-6l-2-5.7h-9.9l-2,5.7h-5.8L250.2,11.9z"/>
		<polygon class="st0" points="270.6,11.9 275.6,11.9 286.7,28.3 286.7,11.9 292.2,11.9 292.2,38 287.1,38 276,21.6 276,38 
			270.6,38 		"/>
		<polygon class="st0" points="314.5,11.9 314.5,28.3 303.5,11.9 298.4,11.9 298.4,38 303.9,38 303.9,21.6 314.9,38 320,38 
			320,11.9 		"/>
	</g>
</g>
</svg>
